<?xml version="1.0" encoding="utf-8"?>
<!-- Generator: Adobe Illustrator 26.0.2, SVG Export Plug-In . SVG Version: 6.00 Build 0)  -->
<svg version="1.1" id="excel" xmlns="http://www.w3.org/2000/svg" xmlns:xlink="http://www.w3.org/1999/xlink" x="0px" y="0px" width="18px" height="18px" fill="#a3adb7"
	 viewBox="0 0 24 24" style="enable-background:new 0 0 24 24;" xml:space="preserve">
<style type="text/css">
	.st0{fill:#185C37;}
	.st1{fill:#21A366;}
	.st2{fill:#107C41;}
	.st3{opacity:0.1;enable-background:new    ;}
	.st4{opacity:0.2;enable-background:new    ;}
	.st5{fill:url(#SVGID_1_);}
	.st6{fill:#FFFFFF;}
	.st7{fill:#33C481;}
</style>
<g>
	<path class="st0" d="M15,11.4L5.7,9.8V22c0,0.6,0.5,1,1,1l0,0h16.2c0.6,0,1-0.5,1-1l0,0v-4.5L15,11.4z"/>
	<path class="st1" d="M15,1H6.7c-0.6,0-1,0.5-1,1l0,0v4.5L15,12l5,1.7l3.9-1.7V6.5L15,1z"/>
	<path class="st2" d="M5.7,6.5H15V12H5.7V6.5z"/>
	<path class="st3" d="M12.4,5.4H5.7v13.8h6.7c0.6,0,1-0.5,1-1V6.4C13.4,5.8,12.9,5.4,12.4,5.4z"/>
	<path class="st4" d="M11.8,5.9H5.7v13.8h6.2c0.6,0,1-0.5,1-1V6.9C12.8,6.4,12.4,5.9,11.8,5.9z"/>
	<path class="st4" d="M11.8,5.9H5.7v12.7h6.2c0.6,0,1-0.5,1-1V6.9C12.8,6.4,12.4,5.9,11.8,5.9z"/>
	<path class="st4" d="M11.3,5.9H5.7v12.7h5.6c0.6,0,1-0.5,1-1V6.9C12.3,6.4,11.8,5.9,11.3,5.9z"/>
	
		<linearGradient id="SVGID_1_" gradientUnits="userSpaceOnUse" x1="2.2511" y1="-1358.856" x2="10.1681" y2="-1345.144" gradientTransform="matrix(1 0 0 1 0 1364)">
		<stop  offset="0" style="stop-color:#18884F"/>
		<stop  offset="0.5" style="stop-color:#117E43"/>
		<stop  offset="1" style="stop-color:#0B6631"/>
	</linearGradient>
	<path class="st5" d="M1.2,5.9h10.1c0.6,0,1,0.5,1,1v10.1c0,0.6-0.5,1-1,1H1.2c-0.6,0-1-0.5-1-1V6.9C0.1,6.4,0.6,5.9,1.2,5.9z"/>
	<path class="st6" d="M3.3,15.3L5.4,12L3.5,8.7H5l1.1,2.1c0.1,0.2,0.2,0.3,0.2,0.4h0c0.1-0.2,0.1-0.3,0.2-0.5l1.1-2.1h1.4l-2,3.3
		l2,3.3H7.6L6.4,13c-0.1-0.1-0.1-0.2-0.1-0.3h0c0,0.1-0.1,0.2-0.1,0.3l-1.3,2.3L3.3,15.3L3.3,15.3z"/>
	<path class="st7" d="M22.8,1H15v5.5h8.8V2C23.9,1.4,23.4,1,22.8,1L22.8,1z"/>
	<path class="st2" d="M15,12h8.8v5.5H15V12z"/>
</g>
</svg>
