<?xml version="1.0" encoding="utf-8"?>
<!-- Generator: Adobe Illustrator 26.0.2, SVG Export Plug-In . SVG Version: 6.00 Build 0)  -->
<svg version="1.1" id="word" xmlns="http://www.w3.org/2000/svg" xmlns:xlink="http://www.w3.org/1999/xlink" x="0px" y="0px" width="18px" height="18px" fill="#a3adb7"
	 viewBox="0 0 24 24" style="enable-background:new 0 0 24 24;" xml:space="preserve">
<style type="text/css">
	.st0{fill:#41A5EE;}
	.st1{fill:#2B7CD3;}
	.st2{fill:#185ABD;}
	.st3{fill:#103F91;}
	.st4{opacity:0.1;enable-background:new    ;}
	.st5{opacity:0.2;enable-background:new    ;}
	.st6{fill:url(#SVGID_1_);}
	.st7{fill:#FFFFFF;}
</style>
<g>
	<path class="st0" d="M22.8,1H6.7c-0.6,0-1,0.5-1,1l0,0v4.5L15,9.2l8.8-2.8V2C23.9,1.4,23.4,1,22.8,1L22.8,1z"/>
	<path class="st1" d="M23.9,6.5H5.7V12l9.4,1.7l8.8-1.7V6.5z"/>
	<path class="st2" d="M5.7,12v5.5l8.8,1.1l9.4-1.1V12H5.7z"/>
	<path class="st3" d="M6.7,23h16.2c0.6,0,1-0.5,1-1l0,0v-4.5H5.7V22C5.7,22.6,6.1,23,6.7,23L6.7,23z"/>
	<path class="st4" d="M12.4,5.4H5.7v13.8h6.7c0.6,0,1-0.5,1-1V6.4C13.4,5.8,12.9,5.4,12.4,5.4z"/>
	<path class="st5" d="M11.8,5.9H5.7v13.8h6.2c0.6,0,1-0.5,1-1V6.9C12.8,6.4,12.4,5.9,11.8,5.9z"/>
	<path class="st5" d="M11.8,5.9H5.7v12.7h6.2c0.6,0,1-0.5,1-1V6.9C12.8,6.4,12.4,5.9,11.8,5.9z"/>
	<path class="st5" d="M11.3,5.9H5.7v12.7h5.6c0.6,0,1-0.5,1-1V6.9C12.3,6.4,11.8,5.9,11.3,5.9z"/>
	
		<linearGradient id="SVGID_1_" gradientUnits="userSpaceOnUse" x1="2.2511" y1="-978.856" x2="10.1681" y2="-965.144" gradientTransform="matrix(1 0 0 1 0 984)">
		<stop  offset="0" style="stop-color:#2368C4"/>
		<stop  offset="0.5" style="stop-color:#1A5DBE"/>
		<stop  offset="1" style="stop-color:#1146AC"/>
	</linearGradient>
	<path class="st6" d="M1.2,5.9h10.1c0.6,0,1,0.5,1,1v10.1c0,0.6-0.5,1-1,1H1.2c-0.6,0-1-0.5-1-1V6.9C0.1,6.4,0.6,5.9,1.2,5.9z"/>
	<path class="st7" d="M4.3,13.7c0,0.2,0,0.3,0,0.4h0c0-0.1,0-0.2,0.1-0.4c0-0.2,0.1-0.3,0.1-0.4l1.1-4.6h1.4L8,13.2
		c0.1,0.3,0.1,0.6,0.1,0.9h0c0-0.3,0.1-0.6,0.1-0.8l0.9-4.5h1.3l-1.5,6.6H7.4l-1-4.4c0-0.1-0.1-0.3-0.1-0.5c0-0.2-0.1-0.3-0.1-0.4h0
		c0,0.1,0,0.3-0.1,0.5c0,0.2-0.1,0.4-0.1,0.5l-1,4.3H3.6L2,8.7h1.3l1,4.6C4.3,13.4,4.3,13.5,4.3,13.7z"/>
</g>
</svg>
