<?xml version="1.0" encoding="utf-8"?>
<!-- Generator: Adobe Illustrator 26.1.0, SVG Export Plug-In . SVG Version: 6.00 Build 0)  -->
<svg version="1.1" xmlns="http://www.w3.org/2000/svg" xmlns:xlink="http://www.w3.org/1999/xlink" x="0px" y="0px"
	 viewBox="0 0 40 40" style="enable-background:new 0 0 40 40;" xml:space="preserve">
<style type="text/css">
	.st0{display:none;}
	.st1{display:inline;fill:#FFFFFF;}
	.st2{display:inline;fill:#3FB6DC;}
	.st3{display:inline;fill:#E8EBED;}
	.st4{display:inline;fill:#677686;}
	.st5{display:inline;}
	.st6{fill:#E8EBED;}
	.st7{fill:#677686;}
	.st8{fill:#3FB6DC;}
</style>
<g id="Layer_3" class="st0">
</g>
<g id="Layer_1">
	<path class="st8" d="M22.7,6.85l-3.11,4.97c0.14-0.01,0.28-0.01,0.42-0.01c3.85,0,7.07,2.66,7.95,6.23l5.27,3.29l5.33-2.74
		C37.84,8.98,29.81,1.4,20,1.39L22.7,6.85z"/>
	<path class="st6" d="M17.35,33.08l3.19-4.91c-0.18,0.01-0.36,0.02-0.54,0.02c-3.7,0-6.82-2.45-7.84-5.81L6.6,19.02l-5.13,2.61
		C2.3,31.15,10.28,38.61,20,38.61c0.02,0,0.03,0,0.05,0L17.35,33.08z"/>
	<path class="st7" d="M33,22.95l-4.82-3.02c0,0.02,0,0.04,0,0.06c0,3.62-2.35,6.69-5.61,7.77l-3.49,5.57l2.56,5.19
		c9.44-0.83,16.86-8.71,16.96-18.34L33,22.95z"/>
	<path class="st8" d="M6.93,17.37l4.9,3.04c-0.01-0.13-0.01-0.27-0.01-0.41c0-3.69,2.44-6.81,5.79-7.83l3.38-5.55L18.4,1.46
		C8.88,2.27,1.4,10.26,1.4,20c0,0.02,0,0.04,0,0.07L6.93,17.37z"/>
	<g>
		<g>
			<path class="st8" d="M19.97,24.91c-0.7,0-1.32-0.12-1.86-0.36c-0.54-0.24-0.97-0.57-1.28-1c-0.31-0.42-0.47-0.92-0.48-1.47h2.03
				c0.01,0.23,0.09,0.44,0.23,0.61c0.14,0.18,0.33,0.31,0.57,0.41c0.24,0.1,0.5,0.14,0.8,0.14c0.31,0,0.58-0.05,0.82-0.16
				c0.24-0.11,0.42-0.26,0.55-0.45s0.2-0.42,0.2-0.67c0-0.25-0.07-0.48-0.21-0.68s-0.34-0.35-0.61-0.46
				c-0.26-0.11-0.58-0.17-0.94-0.17h-0.89v-1.48h0.89c0.3,0,0.57-0.05,0.81-0.16c0.23-0.11,0.42-0.25,0.55-0.44
				c0.13-0.19,0.2-0.41,0.2-0.66c0-0.24-0.06-0.45-0.17-0.63c-0.11-0.18-0.27-0.32-0.48-0.43c-0.2-0.1-0.44-0.15-0.71-0.15
				c-0.27,0-0.52,0.05-0.75,0.15c-0.23,0.1-0.41,0.24-0.54,0.42c-0.14,0.18-0.21,0.39-0.22,0.63h-1.93
				c0.01-0.55,0.17-1.04,0.47-1.46c0.3-0.42,0.72-0.75,1.23-0.99c0.52-0.24,1.1-0.36,1.75-0.36c0.66,0,1.24,0.12,1.73,0.36
				s0.88,0.56,1.15,0.97c0.28,0.41,0.41,0.86,0.41,1.36c0,0.54-0.16,0.98-0.5,1.34c-0.33,0.36-0.77,0.58-1.3,0.68v0.07
				c0.7,0.09,1.24,0.33,1.61,0.73s0.55,0.89,0.55,1.49c0,0.54-0.15,1.03-0.47,1.45c-0.32,0.42-0.75,0.75-1.3,1
				C21.32,24.78,20.69,24.91,19.97,24.91z"/>
		</g>
	</g>
</g>
<g id="Layer_2" class="st0">
</g>
</svg>
