<?xml version="1.0" encoding="utf-8"?>
<!-- Generator: Adobe Illustrator 26.1.0, SVG Export Plug-In . SVG Version: 6.00 Build 0)  -->
<svg version="1.1" xmlns="http://www.w3.org/2000/svg" xmlns:xlink="http://www.w3.org/1999/xlink" x="0px" y="0px"
	 viewBox="0 0 40 40" style="enable-background:new 0 0 40 40;" xml:space="preserve">
<style type="text/css">
	.st0{display:none;}
	.st1{display:inline;fill:#FFFFFF;}
	.st2{display:inline;fill:#3FB6DC;}
	.st3{display:inline;fill:#E8EBED;}
	.st4{display:inline;fill:#677686;}
	.st5{display:inline;}
	.st6{fill:#E8EBED;}
	.st7{fill:#677686;}
	.st8{fill:#3FB6DC;}
</style>
<g id="Layer_3" class="st0">
</g>
<g id="Layer_1">
	<path class="st7" d="M11.1,30.42l4.54-3.26c-2.52-1.4-4.22-4.08-4.22-7.16c0-2.34,0.98-4.44,2.55-5.93l0.24-6.33L9.2,4.57
		C4.25,7.92,1,13.58,1,20c0,7.39,4.31,13.78,10.55,16.78L11.1,30.42z"/>
	<path class="st6" d="M38.16,18.58l-5.21,3.63l-5.16-2.24c0,0.01,0,0.02,0,0.03c0,4.52-3.67,8.19-8.19,8.19
		c-0.81,0-1.59-0.12-2.33-0.34l-4.72,3.53l0.5,6.04c2.04,0.77,4.24,1.18,6.54,1.18c10.28,0,18.61-8.33,18.61-18.61
		C38.21,19.52,38.19,19.05,38.16,18.58z"/>
	<path class="st6" d="M15.66,7.12l-0.19,5.81c1.21-0.71,2.63-1.12,4.13-1.12c3.94,0,7.22,2.78,8.01,6.48l5.29,2.34l5.06-3.68
		C36.51,8.13,28.84,1.39,19.6,1.39c-3.29,0-6.38,0.85-9.06,2.35L15.66,7.12z"/>
	<g>
		<g>
			<path class="st8" d="M21.71,15.02v9.55H19.7v-7.63h-0.06l-2.19,1.37v-1.79l2.36-1.5H21.71z"/>
		</g>
	</g>
</g>
<g id="Layer_2" class="st0">
</g>
</svg>
