<?xml version="1.0" encoding="utf-8"?>
<!-- Generator: Adobe Illustrator 26.1.0, SVG Export Plug-In . SVG Version: 6.00 Build 0)  -->
<svg version="1.1" xmlns="http://www.w3.org/2000/svg" xmlns:xlink="http://www.w3.org/1999/xlink" x="0px" y="0px"
	 viewBox="0 0 40 40" style="enable-background:new 0 0 40 40;" xml:space="preserve">
<style type="text/css">
	.st0{display:none;}
	.st1{display:inline;fill:#FFFFFF;}
	.st2{display:inline;fill:#3FB6DC;}
	.st3{display:inline;fill:#E8EBED;}
	.st4{display:inline;fill:#677686;}
	.st5{display:inline;}
	.st6{fill:#E8EBED;}
	.st7{fill:#677686;}
	.st8{fill:#3FB6DC;}
</style>
<g id="Layer_3" class="st0">
</g>
<g id="Layer_1">
	<path class="st7" d="M22.3,6.85l-3.11,4.97c0.14-0.01,0.28-0.01,0.42-0.01c3.85,0,7.07,2.66,7.95,6.23l5.27,3.29l5.33-2.74
		c-0.72-9.62-8.75-17.2-18.55-17.2L22.3,6.85z"/>
	<path class="st6" d="M16.95,33.08l3.19-4.91c-0.18,0.01-0.36,0.02-0.54,0.02c-3.7,0-6.82-2.45-7.84-5.81L6.2,19.02l-5.13,2.61
		c0.83,9.51,8.81,16.97,18.53,16.97c0.02,0,0.03,0,0.05,0L16.95,33.08z"/>
	<path class="st6" d="M32.61,22.95l-4.82-3.02c0,0.02,0,0.04,0,0.06c0,3.62-2.35,6.69-5.61,7.77l-3.49,5.57l2.56,5.19
		c9.44-0.83,16.86-8.71,16.96-18.34L32.61,22.95z"/>
	<path class="st8" d="M6.53,17.37l4.9,3.04c-0.01-0.13-0.01-0.27-0.01-0.41c0-3.69,2.44-6.81,5.79-7.83l3.38-5.55l-2.58-5.16
		C8.48,2.27,1,10.26,1,20c0,0.02,0,0.04,0,0.07L6.53,17.37z"/>
	<g>
		<g>
			<path class="st8" d="M16.64,24.84v-1.46l3.4-3.15c0.29-0.28,0.53-0.53,0.73-0.76c0.2-0.22,0.35-0.44,0.45-0.66
				c0.1-0.22,0.15-0.45,0.15-0.7c0-0.28-0.06-0.52-0.19-0.73c-0.13-0.2-0.3-0.36-0.52-0.47s-0.47-0.17-0.75-0.17
				c-0.29,0-0.55,0.06-0.76,0.18c-0.22,0.12-0.39,0.29-0.5,0.51c-0.12,0.22-0.18,0.48-0.18,0.79h-1.92c0-0.62,0.14-1.17,0.42-1.63
				c0.28-0.46,0.68-0.82,1.19-1.07c0.51-0.25,1.1-0.38,1.76-0.38c0.68,0,1.28,0.12,1.79,0.36c0.51,0.24,0.9,0.57,1.19,1
				c0.28,0.43,0.42,0.91,0.42,1.46c0,0.36-0.07,0.72-0.21,1.07c-0.14,0.35-0.39,0.74-0.75,1.17c-0.36,0.43-0.87,0.94-1.52,1.54
				l-1.39,1.37v0.07h4.01v1.65H16.64z"/>
		</g>
	</g>
</g>
<g id="Layer_2" class="st0">
</g>
</svg>
