<?xml version="1.0" encoding="utf-8"?>
<!-- Generator: Adobe Illustrator 26.1.0, SVG Export Plug-In . SVG Version: 6.00 Build 0)  -->
<svg version="1.1" xmlns="http://www.w3.org/2000/svg" xmlns:xlink="http://www.w3.org/1999/xlink" x="0px" y="0px"
	 viewBox="0 0 40 40" style="enable-background:new 0 0 40 40;" xml:space="preserve">
<style type="text/css">
	.st0{display:none;}
	.st1{display:inline;fill:#FFFFFF;}
	.st2{display:inline;fill:#3FB6DC;}
	.st3{display:inline;fill:#E8EBED;}
	.st4{display:inline;fill:#677686;}
	.st5{display:inline;}
	.st6{fill:#E8EBED;}
	.st7{fill:#677686;}
	.st8{fill:#3FB6DC;}
</style>
<g id="Layer_3" class="st0">
</g>
<g id="Layer_1">
	<path class="st6" d="M22.7,6.85l-3.11,4.97c0.14-0.01,0.28-0.01,0.42-0.01c3.85,0,7.07,2.66,7.95,6.23l5.27,3.29l5.33-2.74
		C37.84,8.98,29.81,1.4,20,1.39L22.7,6.85z"/>
	<path class="st6" d="M17.35,33.08l3.19-4.91c-0.18,0.01-0.36,0.02-0.54,0.02c-3.7,0-6.82-2.45-7.84-5.81L6.6,19.02l-5.13,2.61
		C2.3,31.15,10.28,38.61,20,38.61c0.02,0,0.03,0,0.05,0L17.35,33.08z"/>
	<path class="st6" d="M33,22.95l-4.82-3.02c0,0.02,0,0.04,0,0.06c0,3.62-2.35,6.69-5.61,7.77l-3.49,5.57l2.56,5.19
		c9.44-0.83,16.86-8.71,16.96-18.34L33,22.95z"/>
	<path class="st7" d="M6.93,17.37l4.9,3.04c-0.01-0.13-0.01-0.27-0.01-0.41c0-3.69,2.44-6.81,5.79-7.83l3.38-5.55L18.4,1.46
		C8.88,2.27,1.4,10.26,1.4,20c0,0.02,0,0.04,0,0.07L6.93,17.37z"/>
	<g>
		<g>
			<path class="st8" d="M21.71,15.02v9.55H19.7v-7.63h-0.06l-2.19,1.37v-1.79l2.36-1.5H21.71z"/>
		</g>
	</g>
</g>
<g id="Layer_2" class="st0">
</g>
</svg>
