<?xml version="1.0" encoding="utf-8"?>
<!-- Generator: Adobe Illustrator 26.1.0, SVG Export Plug-In . SVG Version: 6.00 Build 0)  -->
<svg version="1.1" xmlns="http://www.w3.org/2000/svg" xmlns:xlink="http://www.w3.org/1999/xlink" x="0px" y="0px"
	 viewBox="0 0 40 40" style="enable-background:new 0 0 40 40;" xml:space="preserve">
<style type="text/css">
	.st0{display:none;}
	.st1{display:inline;fill:#FFFFFF;}
	.st2{display:inline;fill:#3FB6DC;}
	.st3{display:inline;fill:#E8EBED;}
	.st4{display:inline;fill:#677686;}
	.st5{display:inline;}
	.st6{fill:#E8EBED;}
	.st7{fill:#677686;}
	.st8{fill:#3FB6DC;}
</style>
<g id="Layer_3" class="st0">
</g>
<g id="Layer_1">
	<path class="st8" d="M11.5,30.42l4.54-3.26c-2.52-1.4-4.22-4.08-4.22-7.16c0-2.34,0.98-4.44,2.55-5.93l0.24-6.33L9.6,4.57
		C4.65,7.92,1.39,13.58,1.39,20c0,7.39,4.31,13.78,10.55,16.78L11.5,30.42z"/>
	<path class="st6" d="M38.55,18.58l-5.21,3.63l-5.16-2.24c0,0.01,0,0.02,0,0.03c0,4.52-3.67,8.19-8.19,8.19
		c-0.81,0-1.59-0.12-2.33-0.34l-4.72,3.53l0.5,6.04c2.04,0.77,4.24,1.18,6.54,1.18c10.28,0,18.61-8.33,18.61-18.61
		C38.61,19.52,38.59,19.05,38.55,18.58z"/>
	<path class="st7" d="M16.05,7.12l-0.19,5.81c1.21-0.71,2.63-1.12,4.13-1.12c3.94,0,7.22,2.78,8.01,6.48l5.29,2.34l5.06-3.68
		C36.9,8.13,29.24,1.39,20,1.39c-3.29,0-6.38,0.85-9.06,2.35L16.05,7.12z"/>
	<g>
		<g>
			<path class="st8" d="M16.64,24.84v-1.46l3.4-3.15c0.29-0.28,0.53-0.53,0.73-0.76c0.2-0.22,0.35-0.44,0.45-0.66
				c0.1-0.22,0.15-0.45,0.15-0.7c0-0.28-0.06-0.52-0.19-0.73c-0.13-0.2-0.3-0.36-0.52-0.47s-0.47-0.17-0.75-0.17
				c-0.29,0-0.55,0.06-0.76,0.18c-0.22,0.12-0.38,0.29-0.5,0.51s-0.18,0.48-0.18,0.79h-1.92c0-0.62,0.14-1.17,0.42-1.63
				c0.28-0.46,0.68-0.82,1.19-1.07s1.1-0.38,1.76-0.38c0.68,0,1.28,0.12,1.79,0.36c0.51,0.24,0.9,0.57,1.19,1
				c0.28,0.43,0.42,0.91,0.42,1.46c0,0.36-0.07,0.72-0.21,1.07c-0.14,0.35-0.39,0.74-0.75,1.17c-0.36,0.43-0.87,0.94-1.52,1.54
				l-1.39,1.37v0.07h4.01v1.65H16.64z"/>
		</g>
	</g>
</g>
<g id="Layer_2" class="st0">
</g>
</svg>
