<?xml version="1.0" encoding="utf-8"?>
<!-- Generator: Adobe Illustrator 26.1.0, SVG Export Plug-In . SVG Version: 6.00 Build 0)  -->
<svg version="1.1" xmlns="http://www.w3.org/2000/svg" xmlns:xlink="http://www.w3.org/1999/xlink" x="0px" y="0px"
	 viewBox="0 0 40 40" style="enable-background:new 0 0 40 40;" xml:space="preserve">
<style type="text/css">
	.st0{display:none;}
	.st1{display:inline;fill:#FFFFFF;}
	.st2{display:inline;fill:#3FB6DC;}
	.st3{display:inline;fill:#E8EBED;}
	.st4{display:inline;fill:#677686;}
	.st5{display:inline;}
	.st6{fill:#E8EBED;}
	.st7{fill:#677686;}
	.st8{fill:#3FB6DC;}
</style>
<g id="Layer_3" class="st0">
</g>
<g id="Layer_1">
	<path class="st8" d="M11.5,30.42l4.54-3.26c-2.52-1.4-4.22-4.08-4.22-7.16c0-2.34,0.98-4.44,2.55-5.93l0.24-6.33L9.6,4.57
		C4.65,7.92,1.39,13.58,1.39,20c0,7.39,4.31,13.78,10.55,16.78L11.5,30.42z"/>
	<path class="st7" d="M38.55,18.58l-5.21,3.63l-5.16-2.24c0,0.01,0,0.02,0,0.03c0,4.52-3.67,8.19-8.19,8.19
		c-0.81,0-1.59-0.12-2.33-0.34l-4.72,3.53l0.5,6.04c2.04,0.77,4.24,1.18,6.54,1.18c10.28,0,18.61-8.33,18.61-18.61
		C38.61,19.52,38.59,19.05,38.55,18.58z"/>
	<path class="st8" d="M16.05,7.12l-0.19,5.81c1.21-0.71,2.63-1.12,4.13-1.12c3.94,0,7.22,2.78,8.01,6.48l5.29,2.34l5.06-3.68
		C36.9,8.13,29.24,1.39,20,1.39c-3.29,0-6.38,0.85-9.06,2.35L16.05,7.12z"/>
	<g>
		<g>
			<path class="st8" d="M19.97,24.91c-0.7,0-1.32-0.12-1.86-0.36c-0.54-0.24-0.97-0.57-1.28-1c-0.31-0.42-0.47-0.92-0.48-1.47h2.03
				c0.01,0.23,0.09,0.44,0.23,0.61c0.14,0.18,0.33,0.31,0.57,0.41c0.24,0.1,0.5,0.14,0.8,0.14c0.31,0,0.58-0.05,0.82-0.16
				c0.24-0.11,0.42-0.26,0.55-0.45s0.2-0.42,0.2-0.67c0-0.25-0.07-0.48-0.21-0.68s-0.34-0.35-0.61-0.46
				c-0.26-0.11-0.58-0.17-0.94-0.17h-0.89v-1.48h0.89c0.3,0,0.57-0.05,0.81-0.16c0.23-0.11,0.42-0.25,0.55-0.44
				c0.13-0.19,0.2-0.41,0.2-0.66c0-0.24-0.06-0.45-0.17-0.63c-0.11-0.18-0.27-0.32-0.48-0.43c-0.2-0.1-0.44-0.15-0.71-0.15
				c-0.27,0-0.52,0.05-0.75,0.15c-0.23,0.1-0.41,0.24-0.54,0.42c-0.14,0.18-0.21,0.39-0.22,0.63h-1.93
				c0.01-0.55,0.17-1.04,0.47-1.46c0.3-0.42,0.72-0.75,1.23-0.99c0.52-0.24,1.1-0.36,1.75-0.36c0.66,0,1.24,0.12,1.73,0.36
				s0.88,0.56,1.15,0.97c0.28,0.41,0.41,0.86,0.41,1.36c0,0.54-0.16,0.98-0.5,1.34c-0.33,0.36-0.77,0.58-1.3,0.68v0.07
				c0.7,0.09,1.24,0.33,1.61,0.73s0.55,0.89,0.55,1.49c0,0.54-0.15,1.03-0.47,1.45c-0.32,0.42-0.75,0.75-1.3,1
				C21.32,24.78,20.69,24.91,19.97,24.91z"/>
		</g>
	</g>
</g>
<g id="Layer_2" class="st0">
</g>
</svg>
