<?xml version="1.0" encoding="utf-8"?>
<!-- Generator: Adobe Illustrator 26.0.2, SVG Export Plug-In . SVG Version: 6.00 Build 0)  -->
<svg version="1.1" id="Layer_1" xmlns="http://www.w3.org/2000/svg" xmlns:xlink="http://www.w3.org/1999/xlink" x="0px" y="0px"
	 viewBox="0 0 24 24" style="enable-background:new 0 0 24 24;" xml:space="preserve" width="18" height="18" fill="#A3ADB7">
<g>
	<path class="st0" d="M9.9,9.7c0,0-0.3-0.5-0.5-0.6S9.1,8.6,8.6,9C8.1,9.3,5.4,11,5,11.2c-0.5,0.3-0.5,0.5-0.1,1
		c0.3,0.4,6,8.2,6.3,8.6c0.3,0.5,0.8,0.6,1.1,0.1c0,0,2.3-3.2,2.5-3.5c0.2-0.3,0.2-0.6-0.1-1s-0.6-0.7-0.6-0.7l0.6-0.6
		c0,0,0.7,0.8,0.9,1.1c0.3,0.3,0.5,0.7,0.2,1.3c-0.3,0.6-2.6,4.7-2.9,5.2c-0.2,0.5-1.1,0.9-1.6,0.2c-0.5-0.7-5.7-8-5.7-8
		S3.8,12.5,3.5,12c-0.3-0.4-0.4-1,0.1-1.3c0.5-0.3,3.1-1.6,3.6-1.9c0.5-0.3,1.3-0.7,1.5-0.8c0.3-0.1,0.8-0.2,1.2,0.2
		c0.3,0.4,0.7,1,0.7,1L9.9,9.7z"/>
	<path class="st0" d="M20.5,1c0.1,1.2,0.2,2.2,0.3,3.2c0,0.3-0.1,0.4-0.4,0.5c-1.6,0.2-3.1,0.6-4.6,1c-0.4,0.1-0.6,0-0.6-0.4
		c-0.1-1-0.3-2-0.4-2.9c-0.1-0.4,0.1-0.6,0.4-0.7c1.5-0.5,3-0.8,4.6-1C20.2,0.5,20.4,0.7,20.5,1z"/>
	<path class="st0" d="M15.6,8.3c-0.1-0.3-0.1-0.7-0.1-1c-0.1-0.3,0-0.6,0.3-0.8c1.1-0.4,2.3-0.7,3.5-1c0.4-0.1,0.6,0.1,0.6,0.5
		C20,6.6,20,7.2,20.1,7.8c0,0.3-0.1,0.4-0.4,0.5c-1.1,0.3-2.3,0.6-3.4,0.9c-0.4,0.1-0.5-0.1-0.6-0.4C15.7,8.7,15.7,8.5,15.6,8.3z"/>
	<path class="st0" d="M12.1,11.7c0.1,0.2,0,0.3-0.1,0.4c-0.4,0.4-0.8,0.8-1.2,1.2c-0.2,0.2-0.4,0.2-0.6-0.1l0,0
		c-0.9-1.5-1-1,0.2-2.2c0.2-0.2,0.4-0.4,0.6-0.6c0.2-0.2,0.4-0.2,0.5,0.1C11.7,10.9,11.9,11.3,12.1,11.7z"/>
	<path class="st0" d="M16.3,11.3c0-0.3-0.1-0.5-0.1-0.8c0-0.3,0-0.5,0.2-0.6c0.8-0.3,1.6-0.5,2.4-0.7c0.3,0,0.4,0.1,0.4,0.3
		c0.1,0.4,0.1,0.9,0.1,1.3c0,0.2-0.1,0.3-0.3,0.4c-0.8,0.2-1.6,0.4-2.4,0.7c-0.3,0.1-0.3-0.1-0.4-0.3C16.4,11.6,16.4,11.5,16.3,11.3
		z"/>
	<path class="st0" d="M13.4,13.9c0.1,0.1,0,0.3-0.1,0.4c-0.3,0.4-0.6,0.8-1,1.1c-0.2,0.2-0.4,0.2-0.5-0.1c0,0,0,0,0,0
		c-0.8-1.4-0.8-1,0.1-2.1c0.2-0.2,0.3-0.4,0.5-0.5c0.1-0.2,0.3-0.1,0.4,0.1C13,13.1,13.2,13.5,13.4,13.9z"/>
	<path class="st0" d="M11.6,16.3l-1,1.3c-0.1,0.1-0.2,0.1-0.3,0c0,0,0,0-0.1-0.1l-0.8-1.2c-0.1-0.1-0.1-0.2,0-0.3l1.1-1.2
		c0.1-0.1,0.2-0.1,0.3,0c0,0,0,0,0.1,0.1l0.7,1.1C11.6,16.1,11.6,16.2,11.6,16.3z"/>
	<path class="st0" d="M15.6,11.6c0,0.2,0.1,0.4,0.1,0.6c0.1,0.2,0,0.4-0.2,0.5c-0.4,0.3-0.8,0.5-1.2,0.8c-0.3,0.2-0.4,0.1-0.6-0.1
		c-0.7-1.6-0.9-1.3,0.6-2.2c0.2-0.1,0.3-0.2,0.5-0.3c0.6-0.3,0.6-0.2,0.7,0.4L15.6,11.6z"/>
	<path class="st0" d="M14.3,6.3l-2.6,1.7c-0.2,0.1-0.4,0.1-0.5-0.1c0,0-0.1-0.1-0.1-0.1l-0.7-1.8c-0.1-0.1,0-0.3,0.1-0.4l3-1.8
		c0.2-0.1,0.4-0.1,0.5,0.1c0,0,0.1,0.1,0.1,0.1l0.3,1.9C14.5,6.1,14.5,6.2,14.3,6.3z"/>
	<path class="st0" d="M15.1,9.4c0.1,0.1,0,0.3-0.1,0.4L13,11c-0.1,0.1-0.4,0.1-0.5-0.2l-0.6-1.6c-0.1-0.1,0-0.3,0.1-0.4l2.3-1.5
		c0.1-0.1,0.4-0.1,0.5,0.2L15.1,9.4L15.1,9.4z"/>
</g>
</svg>
